<svg xmlns="http://www.w3.org/2000/svg" xmlns:xlink="http://www.w3.org/1999/xlink" data-stacking-context="true" aria-owns="root" width="311" height="20" viewBox="32 32 311 20"><!-- Generated by dom-to-svg from about:srcdoc --><style/><g data-stacking-layer="rootBackgroundAndBorders"/><g data-stacking-layer="childStackingContextsWithNegativeStackLevels"/><g data-stacking-layer="inFlowNonInlineNonPositionedDescendants"/><g data-stacking-layer="nonPositionedFloats"/><g data-stacking-layer="inFlowInlineLevelNonPositionedDescendants"/><g data-stacking-layer="childStackingContextsWithStackLevelZeroAndPositionedDescendantsWithStackLevelZero"/><g data-stacking-layer="childStackingContextsWithPositiveStackLevels"/><g data-tag="div" id="root" data-z-index="auto" data-stacking-context="true" aria-owns="lucide1"><g data-tag="svg" id="lucide1" class="lucide lucide-shield-check h-5 w-5 text-cerulean" data-z-index="auto" data-stacking-context="true" aria-hidden="true" mask="url(#mask-for-lucide11)"><g data-stacking-layer="rootBackgroundAndBorders"/><g data-stacking-layer="childStackingContextsWithNegativeStackLevels"/><g data-stacking-layer="inFlowNonInlineNonPositionedDescendants"/><g data-stacking-layer="nonPositionedFloats"/><g data-stacking-layer="inFlowInlineLevelNonPositionedDescendants"/><g data-stacking-layer="childStackingContextsWithStackLevelZeroAndPositionedDescendantsWithStackLevelZero"/><g data-stacking-layer="childStackingContextsWithPositiveStackLevels"/><mask id="mask-for-lucide11"><rect width="20" height="20" x="32" y="32" fill="#ffffff"/></mask><g class="svg-content lucide lucide-shield-check h-5 w-5 text-cerulean" data-view-box="0 0 24 24" data-width="24" data-height="24" transform="matrix(0.833333 0 0 0.833333 32 32)"><path d="M20 13c0 5-3.5 7.5-7.66 8.95a1 1 0 0 1-.67-.01C7.5 20.5 4 18 4 13V6a1 1 0 0 1 1-1c2 0 4.5-1.2 6.24-2.72a1.17 1.17 0 0 1 1.52 0C14.51 3.81 17 5 19 5a1 1 0 0 1 1 1z" color="rgb(0, 0, 0)" fill="none" stroke="rgb(0, 0, 0)" stroke-linecap="round" stroke-linejoin="round" stroke-width="2px"/><path d="m9 12 2 2 4-4" color="rgb(0, 0, 0)" fill="none" stroke="rgb(0, 0, 0)" stroke-linecap="round" stroke-linejoin="round" stroke-width="2px"/></g></g></g></svg>